{"title":"Torn Curtain(1966)MP-4[DaScubaDude]","uid":12518868,"size":1564984550,"categoryP":"video","categoryS":"movies","magnet":"?xt=urn:btih:6970ef1613527d09df342170d34047f293e83a64&amp;dn=Torn+Curtain%281966%29MP-4%5BDaScubaDude%5D&amp;tr=udp%3A%2F%2Ftracker.leechers-paradise.org%3A6969&amp;tr=udp%3A%2F%2Fzer0day.ch%3A1337&amp;tr=udp%3A%2F%2Fopen.demonii.com%3A1337&amp;tr=udp%3A%2F%2Ftracker.coppersurfer.tk%3A6969&amp;tr=udp%3A%2F%2Fexodus.desync.com%3A6969","seeders":0,"leechers":1,"uploader":"dascuba","files":1,"time":1443818164,"description":"Torn Curtain (1966)\r\nPG  |  128 min  |  Thriller  |  July 1966 (UK)\r\n6.7 Your rating:   -/10   Ratings: 6.7/10 from 17,420 users   \r\nReviews: 134 user | 60 critic\r\nAn American scientist publicly defects to East Germany as part of a cloak and dagger mission to find the solution for a formula resin and then figuring out a plan to escape back to the West.\r\n\r\nDirector: Alfred Hitchcock\r\nWriter: Brian Moore\r\nStars: Paul Newman, Julie Andrews, Lila Kedrova\r\n\r\nGeneral\r\nComplete name                            : C:Torn CurtainTORN_CURTAIN_Title1.mp4\r\nFormat                                   : MPEG-4\r\nFormat profile                           : Base Media\r\nCodec ID                                 : isom\r\nFile size                                : 1.46 GiB\r\nDuration                                 : 2h 7mn\r\nOverall bit rate mode                    : Constant\r\nOverall bit rate                         : 1 633 Kbps\r\nMovie name                               : TORN_CURTAIN\r\nGenre                                    : Spy_Film\r\nWriting application                      : Lavf54.6.100\r\n\r\nVideo\r\nID                                       : 1\r\nFormat                                   : MPEG-4 Visual\r\nFormat settings, BVOP                    : No\r\nFormat settings, QPel                    : No\r\nFormat settings, GMC                     : No warppoints\r\nFormat settings, Matrix                  : Default (H.263)\r\nCodec ID                                 : 20\r\nDuration                                 : 2h 7mn\r\nBit rate mode                            : Constant\r\nBit rate                                 : 1 500 Kbps\r\nWidth                                    : 720 pixels\r\nHeight                                   : 404 pixels\r\nDisplay aspect ratio                     : 16:9\r\nFrame rate mode                          : Constant\r\nFrame rate                               : 29.970 fps\r\nColor space                              : YUV\r\nChroma subsampling                       : 4:2:0\r\nBit depth                                : 8 bits\r\nScan type                                : Progressive\r\nCompression mode                         : Lossy\r\nBits/(Pixel*Frame)                       : 0.172\r\nStream size                              : 1.34 GiB (92%)\r\nWriting library                          : Lavc54.23.100\r\n\r\nAudio\r\nID                                       : 2\r\nFormat                                   : MPEG Audio\r\nFormat version                           : Version 1\r\nFormat profile                           : Layer 3\r\nCodec ID                                 : 6B\r\nDuration                                 : 2h 7mn\r\nBit rate mode                            : Constant\r\nBit rate                                 : 128 Kbps\r\nChannel(s)                               : 2 channels\r\nSampling rate                            : 44.1 KHz\r\nCompression mode                         : Lossy\r\nStream size                              : 117 MiB (8%)\r\nWriting library                          : LAME3.99.5","torrent":{"xt":"urn:btih:6970ef1613527d09df342170d34047f293e83a64","amp;dn":"Torn+Curtain%281966%29MP-4%5BDaScubaDude%5D","amp;tr":["udp%3A%2F%2Ftracker.leechers-paradise.org%3A6969","udp%3A%2F%2Fzer0day.ch%3A1337","udp%3A%2F%2Fopen.demonii.com%3A1337","udp%3A%2F%2Ftracker.coppersurfer.tk%3A6969","udp%3A%2F%2Fexodus.desync.com%3A6969"],"infoHash":"6970ef1613527d09df342170d34047f293e83a64","infoHashBuffer":{"type":"Buffer","data":[105,112,239,22,19,82,125,9,223,52,33,112,211,64,71,242,147,232,58,100]},"announce":[],"urlList":[]}}